<svg xmlns="http://www.w3.org/2000/svg" width="169" height="22" viewBox="0 0 169 22">
    <g fill="none" fill-rule="evenodd">
        <path d="M-44-24h257v70H-44z"/>
        <path fill="#000" d="M0 21.765L2.618 5.176C3.235 1.265 5.882.206 8.44.236c0 0 6.47.117 9.03.47l-.647 4.03H9.059c-1.5 0-1.677.852-1.794 1.646l-.383 2.442 7.853.294-.617 4-7.97.264-1.324 8.383H0zm25.088-8.5h4.088l-.97-6.912-3.118 6.912zm-9.235 8.5L26.294.235h5.588l3.383 21.53h-4.941l-.765-4.324h-6.324l-2.03 4.324h-5.352zm20.353 0l.706-4.383L48.029 4.618h-9.117l.706-4.383h14.94l-.705 4.383-10.706 12.764h8.706l-.706 4.383H36.206zm16.323 0l.706-4.383L64.353 4.618h-9.118l.706-4.383h14.941l-.706 4.383-10.705 12.764h8.705l-.705 4.383H52.529zm22.677-4.177h3.765c2.353 0 3.529-2.323 4.176-6.53.882-5.47-.118-6.646-2.294-6.646h-3.559l-2.088 13.176zm-5.47 4.177L73.146.235h8.97c6.03 0 6.736 5.677 5.824 11.53-1.176 7.735-3.794 10-8.853 10h-9.353zm19.676-4.706l1.97-12.353C92 .824 94.647.206 97.147.236c0 0 6.5.117 9.03.47l-.648 4.03h-7.764c-1.53 0-1.677.852-1.794 1.646l-.353 2.353 7.823.324-.647 3.97-7.912.265-.411 2.53c-.236 1.558.735 1.529 1.588 1.529h7.5l-.647 4c-2.353.294-8.912.5-8.912.5-2.118.088-5.206-.735-4.588-4.794zm16.294 4l.588-3.765c1.177.147 4.53.324 7.265.324 1.265 0 2.294-.265 2.5-1.56l.117-.852c.177-1.059.03-1.706-1.5-1.706h-2.558c-5.383 0-5.236-4.441-5-6.03l.294-2.352c.647-4.353 3.5-5.03 6.764-5.06 3.648-.058 6.353.236 8.295.913l-.589 3.764c-1.764-.147-5.411-.294-6.882-.294-1.735-.03-2.53.088-2.794 1.735l-.118.736c-.235 1.47.236 1.764 1.794 1.764h2.677c4.265 0 4.794 3.589 4.47 5.942l-.117 1.911c-.324 5.236-4.383 5.471-7.147 5.471-3.765 0-5.706-.118-8.06-.941zm16.765.706l3.411-21.53h4.824l-3.412 21.53h-4.823zm9.117-11.736C132.882 3.176 134.618 0 140.471 0c3.853 0 4.911.176 8.264 1.088l-.588 3.677c-.559-.06-3.853-.589-7-.589-2.47 0-3.823.942-4.706 6.795-.765 4.794-.53 6.5 2.265 6.5 1.941 0 3.147-1.442 3.147-1.442l.53-3.058h-2.324l.47-3.03c1.383-.588 3.206-.706 5.265-.706.618 0 1.294 0 2 .06l-2 12.47h-3.441l-1.088-1.5c-1 1.03-2.03 1.559-4.353 1.676-5.97.265-6.441-6.088-5.324-11.912zm16.765 11.736l3.412-21.53h4.853l5.353 12.736 2-12.736h4.823l-3.412 21.53h-4.794l-5.412-12.5-1.97 12.5h-4.853z"/>
    </g>
</svg>
