<svg xmlns="http://www.w3.org/2000/svg" xmlns:xlink="http://www.w3.org/1999/xlink" width="548" height="763" viewBox="0 0 548 763">
    <defs>
        <path id="a" d="M0 .411h97.321V211.97H0z"/>
        <path id="c" d="M.794.068h111.56V196H.793z"/>
    </defs>
    <g fill="none" fill-rule="evenodd">
        <path fill="#E0E3ED" d="M237.477 203.024c-.279-8.886-5.744-16.841-12.244-22.906-6.5-6.065-14.158-10.773-20.745-16.743-6.587-5.971-12.26-13.721-12.924-22.586-.665-8.865 5.277-18.571 14.112-19.562 7.048-.791 13.533 3.81 18.582 8.79 2.403 2.37 4.711 4.919 7.638 6.598 3.72 2.135 8.414 2.666 12.383 1.04 3.97-1.624 7.023-5.506 7.292-9.786.207-3.282-1.125-6.46-2.648-9.373a65.651 65.651 0 0 0-10.315-14.513c-4.333-4.612-9.334-8.598-13.299-13.53-3.965-4.931-6.89-11.17-6.05-17.442.838-6.272 6.487-12.101 12.78-11.434 5.42.573 10.263 5.518 15.538 4.146 4.816-1.252 6.763-6.945 7.64-11.843 1.624-9.082 2.246-18.363 4.69-27.26 2.444-8.895 7.018-17.64 14.706-22.74 7.688-5.1 18.92-5.516 25.624.82 4.854 4.589 6.527 11.648 6.73 18.324a54.664 54.664 0 0 1-3 19.563c-3.779 10.858-11.003 20.6-12.553 31.993-.317 2.33-.19 5.12 1.742 6.46 1.118.776 2.564.845 3.925.888l14.316.445c6.288.195 13.812 1.149 16.547 6.814 2.181 4.519-.038 10.165-3.794 13.492-3.756 3.328-8.708 4.89-13.477 6.45-4.77 1.56-9.696 3.313-13.216 6.89-1.373 1.395-2.485 3.704-1.21 5.188.701.815 1.862 1.019 2.928 1.158 6.382.827 13.017 1.177 18.764 4.073 5.747 2.896 10.387 9.276 8.85 15.525-.62 2.527-2.164 4.735-3.92 6.653-12.137 13.248-33.779 14.074-45.95 27.29-6.3 6.843-9.158 16.075-12.023 24.925-.434 1.339-.92 2.75-2.006 3.645-.964.795-2.25 1.054-3.485 1.242-7.994 1.214-14.274-.09-21.928-2.694M118.63 26.794C117.048 15.82 112.737 1.554 99.632.103 88.339-1.15 80.614 9.382 78.693 19.316c-2.776 14.362 1.115 29.774 3.973 43.815 3.505 17.219 5.9 33.744 1.221 51.006-5.684 20.972-18.363 44.719-14.927 66.615-5.221-18.073-2.474-38.96-2.774-57.437-.219-13.393-1.442-26.798-4.056-39.943-1.927-9.682-4.364-20.566-11.508-27.894-13.516-13.863-34.984-3.483-35.711 14.885-.454 11.494 6.034 21.424 12.136 30.587 7.59 11.397 14.169 23.177 18.218 36.327 2.972 9.653 4.884 19.594 7.33 29.387-3.13-6.36-6.495-12.715-11.379-17.78-8.298-8.607-26.459-14.415-29.936 1.358-1.427 6.475-1.398 13.6 2.979 18.975 4.87 5.979 12.952 7.579 19.381 11.265 15.415 8.835 25.979 25.982 45.49 25.804.669-.006 1.174-.263 1.525-.644 1.06-.681 1.631-2.211.492-3.385-.33-.34 0 0 .477-1.354-.002-.027.002.028 0 0 1.002-.687.148-1.998-.831-3.247-.303-.387.284.39 0 0-.308-14.913 3.044-29.926 10.911-42.983 7.954-13.201 15.329-26.151 20.183-40.862 9.187-27.845 10.912-58.085 6.743-87.017M507.217 121.643c4.768-7.59 10.656-14.601 13.862-22.971 3.205-8.37 3.089-18.863-3.243-25.207-1.011-1.012-2.17-1.901-3.493-2.442-3.572-1.458-10.12.197-13.217 2.994-3.804 3.436-6.054 8.73-7.821 12.242a24.144 24.144 0 0 0-.664 1.266v.003a22.884 22.884 0 0 0-2.16 7.336c-.325 2.817-.175 5.838-1.637 8.267-1.462 2.43-5.468 3.527-7.032 1.162-.616-.931-.67-2.113-.684-3.23-.182-15.17 3.555-30.076 5.614-45.107 2.059-15.031 2.297-31.001-4.392-44.618-2.534-5.161-6.594-10.224-12.262-11.183-4.395-.743-8.975 1.26-12.002 4.53-3.028 3.272-4.641 7.655-5.27 12.067-1.302 9.14 1.353 18.43 5.245 26.803 3.892 8.372 9.018 16.116 13.1 24.397 1.16 2.35 2.253 4.818 2.363 7.436.11 2.618-.968 5.442-3.256 6.718-1.651.922-3.671.92-5.528.565-5.901-1.127-10.628-5.364-15.792-8.434-7.218-4.29-16.171-6.382-24.131-3.711-7.96 2.67-14.233 10.95-12.883 19.237 1.466 9 10.746 14.727 19.698 16.462 8.952 1.734 18.266.723 27.215 2.473 5.4 1.056 11.392 4.042 12.206 9.484.748 5.007-3.61 9.633-8.485 10.996-4.876 1.363-10.063.298-15.001-.817-4.938-1.115-10.082-2.28-15.006-1.1-5.053 1.21-9.418 4.994-11.334 9.823-1.917 4.83-1.334 10.576 1.513 14.922 4.758 7.262 14.384 9.539 23.066 9.592 8.682.053 17.537-1.478 25.943.694 1.882.486 3.778 1.192 5.17 2.549 4.134 4.03 1.83 10.838 1.354 16.594-.607 7.323 2.552 14.86 8.2 19.562 5.647 4.702 13.63 6.443 20.724 4.519l2.985.705c4.8-.322 8.403-5.144 8.684-9.948.282-4.802-2.036-9.404-4.953-13.23-2.918-3.825-6.478-7.133-9.3-11.03a37.029 37.029 0 0 1-6.96-20.174c-.228-6.052 1.01-11.865 2.936-17.571a93.781 93.781 0 0 1 6.628-12.625M251.877 487.724c3.057-7.489-1.81-16.217-8.542-20.7-6.733-4.485-14.941-5.98-22.66-8.399a93.657 93.657 0 0 1-14.756-6.048c-5.532-2.842-10.977-6.437-14.115-11.807-3.138-5.369-3.316-12.882 1.032-17.328 3.122-3.193 7.979-4.239 12.394-3.569 4.414.67 8.458 2.848 12.16 5.343a70.544 70.544 0 0 1 11.564 9.753c2.557 2.676 4.954 5.597 8.11 7.53 3.157 1.932 7.356 2.695 10.527.787 3.87-2.332 4.759-7.866 3.113-12.075-1.646-4.208-5.183-7.353-8.712-10.176-13.115-10.492-27.888-18.954-39.924-30.667-5.587-5.438-10.865-13.218-8.092-20.505 2.11-5.545 8.549-8.595 14.465-8.139 5.915.456 11.268 3.778 15.619 7.812 4.35 4.034 7.928 8.822 12.04 13.1 2.23 2.318 4.763 4.568 7.892 5.32 5.496 1.32 11.3-2.725 13.262-8.025 1.963-5.3.738-11.338-1.838-16.368-2.577-5.03-6.393-9.294-9.936-13.696-7.936-9.857-14.824-21.034-16.932-33.512-2.107-12.478 1.352-26.454 11.138-34.478 9.786-8.024 26.193-7.839 34.008 2.115 4.018 5.117 5.36 11.857 5.584 18.358.74 21.54-9.361 42.338-8.72 63.88.134 4.503 1.84 10.145 6.326 10.57 2.496.236 4.776-1.384 6.577-3.128 5.608-5.429 9.188-12.83 15.389-17.572 2.61-1.996 5.892-3.497 9.12-2.883 2.795.531 5.116 2.602 6.546 5.062 3.994 6.87 1.42 15.94-3.58 22.12-4.998 6.177-11.997 10.33-18.27 15.21-9.976 7.761-18.588 18.138-21.152 30.515-.365 1.761-.45 3.942 1.02 4.981.887.627 2.073.606 3.147.44 4.556-.708 9.758-3.389 13.295-.43 2.323 1.942 2.5 5.625 1.169 8.345-1.331 2.721-3.818 4.671-6.305 6.4-6.837 4.75-14.71 9.001-18.323 16.501-4.118 8.545-3.285 16.862-4.325 25.363"/>
        <g transform="translate(0 275.754)">
            <mask id="b" fill="#fff">
                <use xlink:href="#a"/>
            </mask>
            <path fill="#E0E3ED" d="M96.997 112.57c-1.386-5.985-8.312-10.51-13.995-8.175-2.291.94-4.08 2.749-6.071 4.233-.447.332-.901.654-1.377.939-2.6 1.562-6.547 1.864-8.168-.698-.65-1.027-.768-2.294-.831-3.508-.18-3.451-.04-6.878.309-10.29 1.217-11.904 5.13-23.594 8.203-35.258 3.952-15.006 6.432-31.446.189-45.652-1.72-3.911-4.136-7.618-7.567-10.166-6.681-4.965-16.463-4.561-23.48-.083-7.017 4.477-11.37 12.41-12.78 20.614-1.41 8.203-.133 16.67 2.234 24.65 1.622 5.473 3.746 10.764 6.123 15.953 2.813 6.142 5.98 12.142 9.107 18.132 1.925 3.69 3.884 7.556 3.955 11.717.07 4.16-2.368 8.68-6.44 9.545-3.601.765-7.198-1.491-9.633-4.254-2.436-2.762-4.181-6.107-6.82-8.676-5.46-5.314-14.568-6.313-21.127-2.436-6.56 3.876-10.077 12.218-8.421 19.655 1.527 6.865 6.77 12.26 12.233 16.69a103.41 103.41 0 0 0 32.188 17.684c3.967 1.33 8.078 2.448 11.586 4.728 3.506 2.28 6.387 6.03 6.35 10.214-.033 4.017-3.048 7.82-6.952 8.773-6.431 1.567-12.202-3.878-16.933-8.508-5.698-5.575-13.598-10.965-21.073-8.193-6.532 2.422-9.547 10.622-7.891 17.389 1.655 6.766 6.896 12.122 12.68 16.003 5.785 3.882 12.26 6.628 18.136 10.372 5.052 3.218 9.788 7.408 12.376 12.734l-.1 5.272h20.017v-17.428a55.582 55.582 0 0 1 7.297-14.294c2.67-3.752 5.87-7.292 7.21-11.698 1.34-4.405.049-10.09-4.196-11.875-3.212-1.351-7.696-.438-9.604-3.355-.588-.898-.773-2.001-.843-3.073-.336-5.141 1.773-10.388 5.573-13.867 3.028-2.772 6.925-4.372 10.348-6.637.51-.337 1.01-.69 1.495-1.062 4.868-3.751 8.079-10.124 6.693-16.11" mask="url(#b)"/>
        </g>
        <path fill="#E0E3ED" d="M509.061 479.777c-6.75-.045-23.38.514-29.698-1.865-6.317-2.379-12.015-7.576-13.027-14.25-1.193-7.869 4.113-15.042 8.494-21.687 4.381-6.644 8.098-15.439 3.931-22.22-2.379-3.874-6.763-5.978-10.978-7.678-12.728-5.132-26.178-8.492-38.473-14.589-12.296-6.096-23.749-15.599-28.085-28.619-3.82-11.47-1.555-24.365 4.124-35.038 5.678-10.673 14.494-19.366 23.986-26.854 10.38-8.189 22.015-15.264 34.952-17.992 12.938-2.729 27.374-.594 37.48 7.932 10.107 8.525 14.555 24.035 8.367 35.719-5.337 10.077-16.6 15.227-25.162 22.758-6.709 5.904-12.155 14.712-10.113 23.411 2.746 11.702 16.533 16.353 28.154 19.422 11.621 3.069 25.307 8.987 26.475 20.949.858 8.797-5.84 16.447-12.719 21.996-6.879 5.548-14.795 10.73-18.1 18.927-3.306 8.197 1.566 20.143 10.392 19.678M114.257 637.796c-.83-4.191-3.209-8.298-7.06-10.146-4.398-2.11-9.77-.86-13.915 1.709-5.034 3.12-8.754 7.936-12.185 12.764a148.776 148.776 0 0 0-3.488 5.147c.928-3.338 1.862-6.675 2.728-10.03 2.885-11.187 5.418-22.995 2.528-34.18-2.085-8.072-7.962-15.972-16.224-17.08-5.152-.692-10.36 1.39-14.517 4.512-11.42 8.574-15.5 23.696-17.708 37.805a266.307 266.307 0 0 0-2.133 17.519c-.03-.155-.058-.317-.087-.47-1.398-7.023-3.17-14.155-7.168-20.095-2.264-3.36-5.813-6.492-9.84-6.05-4.334.476-7.135 4.809-8.602 8.915-4.85 13.57-2.083 28.615 1.833 42.483 7.05 24.964 18.494 51.165 32.293 73.132 24.103-19.956 47.648-52.013 64.776-78.203 5.448-8.331 10.7-17.966 8.769-27.732M450.593 603.637c2.92 9.993 9.563 18.545 17.238 25.58 6.99 6.408 14.98 11.822 20.914 19.22 2.68 3.34 4.994 7.605 3.879 11.74-1.143 4.233-5.738 6.86-10.124 6.891-4.386.03-8.526-2.029-12.14-4.516-5.357-3.689-9.99-8.425-15.66-11.615-5.67-3.19-13-4.605-18.57-1.246-5.846 3.525-7.912 11.477-6.131 18.068 1.782 6.59 6.653 11.933 12.06 16.1a62.366 62.366 0 0 0 15.026 8.55c7.605 3.017 15.737 4.51 23.405 7.367a69.886 69.886 0 0 1 19.988 11.518c1.327 1.093 2.642 2.27 3.45 3.788 2.625 4.932-1.598 11.35-6.994 12.797-5.396 1.45-11.1-.679-15.978-3.4-4.88-2.724-9.506-6.119-14.913-7.524-5.408-1.404-12.046-.184-14.936 4.597-3.201 5.297-.47 12.217 3.274 17.147 6.689 8.812 16.61 15.113 27.43 17.42 5.77 1.231 11.779 1.37 17.395 3.177 2.374.764 4.713 1.932 6.715 3.457 9.777-7.006 30.879-39.556 33.64-45.178 3.022-6.148 7.548-12.47 6.06-19.159-.193-.873-.521-1.769-1.218-2.329-.946-.759-2.287-.696-3.495-.596l-10.17.84c-.55.045-1.155.075-1.59-.262-.46-.357-.566-.996-.61-1.575-.664-9.04 6.097-16.643 10.732-24.433 7.244-12.176 9.726-27.104 6.812-40.97-.568-2.698-1.358-5.415-2.961-7.659-1.603-2.243-4.15-3.962-6.906-3.964-3.01-.002-5.711 2.014-7.441 4.476-1.731 2.463-2.696 5.364-3.854 8.141-2.346 5.624-5.651 11.502-9.508 16.202-1.814 2.212-4.818 4.46-7.25 2.952-.947-.589-1.51-1.626-1.99-2.634-10.231-21.509-1.637-49.019-13.918-69.426-.277-.46-6.785-10.3-21.398-10.357-9.484-.037-16.5 8.957-16.5 8.957-5.527 7.882-6.483 18.55-3.763 27.858"/>
        <g transform="translate(201 566.754)">
            <mask id="d" fill="#fff">
                <use xlink:href="#c"/>
            </mask>
            <path fill="#E0E3ED" d="M44.289 192.447c-8.616-5.528-16.985-11.643-23.671-19.395-6.686-7.752-11.63-17.306-12.477-27.507-.391-4.702.302-9.921 3.748-13.143 4.525-4.23 12.169-3.184 17.053.625 4.885 3.81 7.675 9.64 10.297 15.252A258.732 258.732 0 0 1 5.515 84.42c-4.351-12.08-7.598-26.247-.842-37.165 3.085-4.986 8.618-8.872 14.458-8.365 8.422.733 13.447 9.465 17.02 17.127l13.742 29.47a209.817 209.817 0 0 1-12.705-32.53c-2.65-8.911-4.72-18.213-3.684-27.452 1.035-9.24 5.634-18.487 13.686-23.133C50.502.463 54.534-.61 58.179.545c3.658 1.158 6.326 4.347 8.127 7.736 3.207 6.032 4.27 12.967 4.737 19.783 1.589 23.274-3.223 46.455-8.01 69.286 3.174-20.694 16.653-39.547 35.209-49.244 1.81-.946 3.865-1.832 5.84-1.307 1.584.419 2.804 1.678 3.77 3 5.142 7.025 5.188 16.575 3.536 25.122-5.123 26.487-23.672 47.978-37.2 71.319 3.546-11.42 12.367-21.08 23.417-25.647 2.86-1.181 6.364-1.965 8.875-.156 1.429 1.029 2.237 2.722 2.68 4.425 1.58 6.077-.826 12.43-3.528 18.098a156.327 156.327 0 0 1-22.17 34.156c-7.671 8.989-17.27 17.54-29.016 18.828-2.061.227-4.718-.183-5.25-2.186" mask="url(#d)"/>
        </g>
    </g>
</svg>
