<svg xmlns="http://www.w3.org/2000/svg" xmlns:xlink="http://www.w3.org/1999/xlink" width="652" height="808" viewBox="0 0 652 808">
    <defs>
        <path id="a" d="M.75.768h181.778v129.405H.75z"/>
        <path id="c" d="M0 .962h181.153V169.98H0z"/>
        <path id="e" d="M.472.38h186.666v155.927H.472z"/>
        <path id="g" d="M.264.432h315.917V158H.264z"/>
    </defs>
    <g fill="none" fill-rule="evenodd">
        <path fill="#E0E3ED" d="M260.118 80.973c5.158 9.56.895 21.615 2.953 32.282 2.192 11.365 10.315 20.959 20.14 27.079 9.824 6.119 21.254 9.145 32.648 11.184 20.395 3.65 41.77 4.328 61.51-1.971 19.737-6.298 37.676-20.335 45.19-39.644 7.513-19.308 2.664-43.73-13.878-56.205-12.217-9.214-28.554-10.98-43.813-9.82-15.259 1.159-30.278 4.888-45.575 5.329a106.624 106.624 0 0 1-35.222-4.936s-21.833-7.992-28.243.174-.42 27.798 4.29 36.528M33.218 239.35c-1.617 1.957-1.665 4.756-1.484 7.286 1.237 17.285 12.536 33.427 10.219 50.6-1.303 9.66-6.787 18.17-10.23 27.288-3.443 9.119-4.435 20.486 2.166 27.657 6.019 6.538 15.885 7.143 24.457 9.483 20.084 5.482 36.084 22.257 56.632 25.612 14.72 2.404 29.64-2.496 43.233-8.638 7.304-3.301 14.5-7.023 20.673-12.138 15.363-12.733 22.98-34.154 19.109-53.728-1.373-6.937-4.047-13.538-6.034-20.323a105.428 105.428 0 0 1-4.171-25.713c-.288-7.837.298-15.72-.64-23.506-.937-7.786-3.61-15.707-9.323-21.08-6.96-6.543-17.14-8.227-26.686-8.534a128.656 128.656 0 0 0-55.14 10.526c-9.497 4.122-18.51 9.4-28.321 12.706-9.812 3.305-19.437 7.007-27.922 1.977 0 0-4.28-2.206-6.538.526M297.478 235.027c6.395 6.192 15.116 9.923 24.01 10.272 10.323.405 20.265-3.54 29.831-7.44 9.567-3.901 19.475-7.896 29.802-7.602 10.327.294 21.255 6.09 24.156 16.006 3.674 12.557-6.404 25.51-4.79 38.493.899 7.223 5.334 13.513 10.276 18.856 4.941 5.342 10.556 10.122 14.709 16.098 6.308 9.077 8.633 21.78 2.839 31.195-4.55 7.394-13.143 11.408-21.664 13.075-27.394 5.36-55.941-9.394-83.166-3.234-7.55 1.708-14.642 4.968-21.897 7.667-7.255 2.699-14.92 4.873-22.637 4.258-7.717-.614-15.54-4.478-19.156-11.323-4.531-8.576-1.5-19.158 2.796-27.855 4.296-8.696 9.905-17.215 10.493-26.896.791-13.003-7.547-24.505-13.063-36.306-2.034-4.353-3.734-8.965-3.941-13.765-.282-6.54 2.269-12.976 6.12-18.27 3.727-5.121 9.26-9.557 15.595-9.583 3.732-.015 7.778.259 11.204 1.742 3.343 1.446 5.727 2.488 8.483 4.612M478.177 39.245c5.622-2.827 11.973-2.83 18.029-2.034 8.25 1.084 16.06 4.883 24.379 5.132 8.895.267 17.414-3.566 24.995-8.226 7.58-4.661 14.629-10.24 22.65-14.093 11.303-5.43 24.396-7.182 36.659-4.568 12.264 2.614 23.598 9.642 31.114 19.679 4.118 5.499 7.074 11.8 9.282 18.307 5.439 16.022 6.365 33.798 1.076 49.87-7.617 23.146-28.058 41.136-51.531 47.676-8.58 2.39-17.491 3.372-26.382 3.895-16.276.956-33.12.293-48.035-6.29-15.541-6.858-27.928-19.844-35.84-34.876-7.91-15.032-11.58-32.023-12.623-48.978-.322-5.231-1.17-11.098.216-16.153 1.384-5.054 2.206-6.551 6.01-9.341"/>
        <g transform="translate(469 442.62)">
            <mask id="b" fill="#fff">
                <use xlink:href="#a"/>
            </mask>
            <path fill="#E0E3ED" d="M27.803 7.023C49.59-1.99 78.572 1.04 108.427 2.218c10.398.41 20.899 1.198 30.817 4.347a66.849 66.849 0 0 1 17.575 8.592c12.914 8.87 22.644 22.735 25.117 38.206 2.473 15.47-2.86 32.306-14.77 42.484-14.013 11.978-33.845 13.327-51.644 18.125-13.011 3.507-25.385 9.082-38.361 12.717-12.975 3.634-27.072 5.24-39.776.748-13.525-4.783-24.076-16.185-29.9-29.297C1.66 85.029.183 70.333.929 56.005c.513-9.848 2.086-19.798 6.312-28.71 4.226-8.912 11.353-16.741 20.562-20.272" mask="url(#b)"/>
        </g>
        <path fill="#E0E3ED" d="M637.19 249.978c-14.922-18.616-43.094-25.336-66.453-18.959-18.303 4.997-33.704 17.615-45.93 32.125-7.169 8.506-13.644 17.94-22.949 24.038-6.443 4.223-14.07 6.714-19.687 11.987-4.306 4.043-7.109 9.459-9.002 15.054-2.383 7.045-3.433 14.694-1.847 21.96 1.587 7.266 6.046 14.089 12.652 17.505 6.507 3.365 14.181 3.16 21.478 3.801 14.18 1.246 27.855 5.949 41.994 7.591 13.011 1.511 26.17.404 39.212-.809 13.195-1.227 26.923-2.744 38.114-9.84 13.46-8.536 21.181-24.071 24.06-39.746 4.1-22.341 1.88-43.837-10.495-62.884l-1.148-1.823zM288.998 435.876c-21.266 9.17-36.014 30.556-39.868 53.392-3.853 22.836 2.364 46.677 14.381 66.474 3.242 5.341 6.938 10.479 11.616 14.621 12.648 11.203 30.631 13.742 47.507 14.572 10.909.537 22.049.539 32.482-2.692 17.572-5.44 31.087-19.305 47.09-28.375 8.407-4.763 17.964-8.57 23.482-16.503 3.703-5.323 5.109-11.948 5.326-18.429.156-4.661-.269-9.385-1.78-13.796-1.528-4.464-4.117-8.481-6.814-12.353-17.999-25.852-42.93-48.041-73.144-56.957-20.668-6.099-39.859-6.841-60.278.046"/>
        <g transform="translate(0 422.62)">
            <mask id="d" fill="#fff">
                <use xlink:href="#c"/>
            </mask>
            <path fill="#E0E3ED" d="M116.944 1.7C89.078-1.96 60.148 8.23 39.235 27.008 18.322 45.784 5.281 72.556 1.176 100.36c-1.807 12.243-1.912 25.057 2.417 36.651 6.084 16.291 21.211 28.861 38.341 31.858 14.878 2.603 30.022-1.587 45.114-2.199 20.916-.848 41.846 5.2 62.63 2.697 6.358-.766 12.78-2.404 18.005-6.109 10.228-7.254 13.831-20.965 13.442-33.498-.389-12.534-3.984-24.766-4.91-37.27-.65-8.788.022-17.663-1.144-26.396-1.735-12.994-7.453-25.098-13.698-36.623-2.8-5.165-5.799-10.362-10.185-14.27-9.534-8.496-20.15-11.282-34.244-13.5" mask="url(#d)"/>
        </g>
        <g transform="translate(15 -.38)">
            <mask id="f" fill="#fff">
                <use xlink:href="#e"/>
            </mask>
            <path fill="#E0E3ED" d="M73.253 38.526A86.536 86.536 0 0 0 102.24 25.01c12.826-9.209 24.2-22.424 39.867-24.398 14.145-1.78 28.213 6.851 35.843 18.895 7.63 12.042 9.682 26.872 9.093 41.117-1.31 31.63-16.091 63.548-42.528 80.963-27.563 18.156-64.241 18.407-95.14 6.806-6.801-2.553-13.463-5.67-19.213-10.108-6.365-4.912-11.436-11.308-15.887-18.004-6.127-9.22-11.27-19.33-13.113-30.245-1.844-10.915-.091-22.76 6.486-31.663 7.05-9.544 18.735-14.675 30.398-16.856 11.663-2.181 22.407-.858 35.207-2.99" mask="url(#f)"/>
        </g>
        <g transform="translate(292 649.62)">
            <mask id="h" fill="#fff">
                <use xlink:href="#g"/>
            </mask>
            <path fill="#E0E3ED" d="M12.31 28.41C27.834 11.62 48.398 5.612 69.677 2.734 87.35.345 105.49-1.01 122.895 2.887c14.62 3.272 28.174 10.126 42.473 14.594 23.138 7.231 48.244 8.054 71.806 2.353 13.911-3.365 27.194-8.925 40.958-12.857 9.846-2.812 21.541-4.422 29.38 2.166 5.721 4.811 7.695 12.734 8.35 20.18 2.625 29.828-11.2 59.675-32.727 80.49-21.525 20.815-50.02 33.31-79.231 39.896-29.21 6.587-59.356 7.637-89.295 8.18-26.713.482-55.27.056-77.415-14.89C17.35 129.605 5.979 106.292 1.816 82.717-1.498 63.94-.158 42.837 12.31 28.41" mask="url(#h)"/>
        </g>
        <path fill="#E0E3ED" d="M40.264 652.63c-7.297 6.256-10.783 12.02-14.273 20.525-3.49 8.505-4.737 17.759-5.347 26.932a209.173 209.173 0 0 0 3.345 53.535c1.59 8.223 3.72 16.46 7.839 23.754 8.004 14.18 22.987 23.486 38.776 27.465 15.789 3.978 32.408 3.145 48.53.859 10.287-1.46 20.877-3.662 29.22-9.854 13.65-10.133 18.077-28.15 24.98-43.686 3.709-8.347 8.365-16.32 11.055-25.05 2.272-7.371 3.086-15.108 3.613-22.804.735-10.747.69-22.387-5.554-31.165-5.06-7.115-13.434-11.146-21.83-13.544-8.394-2.4-17.145-3.463-25.434-6.206-9.688-3.207-18.514-8.633-28.151-11.992-22.234-7.75-48.294-3.367-66.77 11.23"/>
    </g>
</svg>
