<svg xmlns="http://www.w3.org/2000/svg" xmlns:xlink="http://www.w3.org/1999/xlink" width="38" height="38" viewBox="0 0 38 38">
    <defs>
        <path id="a" d="M22.644 10.493c-.184 1.173-.62 1.593-1.3 1.593h-2.082l.493-3.08h2.085c.59 0 .98.334.804 1.487m-.189-3.827H17.43l-1.905 12.02-.191 1.052.988-.173L15 25l5.554-8.362-2.057.287.448-2.832c.082.049 1.627.28 2.282.317 1.425.085 3.543.233 4.127-3.585.51-3.283-1.319-4.158-2.899-4.158"/>
        <path id="c" d="M8.334 5A3.337 3.337 0 0 0 5 8.333v15a3.337 3.337 0 0 0 3.333 3.334c.921 0 1.667.746 1.667 1.666v4.31l5.488-5.488a1.66 1.66 0 0 1 1.178-.488h15a3.337 3.337 0 0 0 3.334-3.334v-15A3.337 3.337 0 0 0 31.667 5H8.334zm0 33.333a1.667 1.667 0 0 1-1.667-1.667V29.79c-2.873-.743-5-3.357-5-6.457v-15a6.673 6.673 0 0 1 6.667-6.666h23.333a6.673 6.673 0 0 1 6.667 6.666v15A6.673 6.673 0 0 1 31.667 30h-14.31l-7.845 7.845a1.667 1.667 0 0 1-1.178.488z"/>
        <path id="e" d="M13.334 29.31v-2.643c0-.834-.417-1.25-.833-1.459-.537-.268-.834-.863-.834-1.463V5H8.334A3.335 3.335 0 0 0 5 8.333v15a3.332 3.332 0 0 0 3.333 3.334c.921 0 1.667.746 1.667 1.666v4.31l3.333-3.333z"/>
    </defs>
    <g fill="none" fill-rule="evenodd">
        <g transform="translate(-1 -1)">
            <mask id="b" fill="#fff">
                <use xlink:href="#a"/>
            </mask>
            <use fill="#26BE6B" xlink:href="#a"/>
            <g fill="#BA1818" mask="url(#b)">
                <path d="M0 0h40v40H0z"/>
            </g>
        </g>
        <g transform="translate(-1 -1)">
            <mask id="d" fill="#fff">
                <use xlink:href="#c"/>
            </mask>
            <use fill="#3A8FF3" xlink:href="#c"/>
            <g fill="#4D4D4D" mask="url(#d)">
                <path d="M0 0h40v40H0z"/>
            </g>
        </g>
        <g transform="translate(-1 -1)">
            <mask id="f" fill="#fff">
                <use xlink:href="#e"/>
            </mask>
            <use fill="#D3E6FC" xlink:href="#e"/>
            <g fill="#DFDFDF" mask="url(#f)">
                <path d="M0 0h40v40H0z"/>
            </g>
        </g>
        <path d="M-1-1h40v40H-1z"/>
    </g>
</svg>
